<?xml version="1.0" encoding="UTF-8"?>
<svg id="_图层_3" data-name="图层 3" xmlns="http://www.w3.org/2000/svg" viewBox="0 0 744 925">
  <defs>
    <style>
      .cls-1 {
        fill: #faf4e2;
      }
    </style>
  </defs>
  <path class="cls-1" d="M561.53,415.87c-1.24-17.44,2.13-35.03.99-52.49-3.28-.23-7.48,1.2-9.46-2.04l-11.56-41.95c-1.39-.27-1.28-.2-2.07.64-1.72,1.81-2.88,4.5-5.42,6.35-3.58,2.61-17.12,7.04-20.56,4.57-1.85-1.32-4.26-28.33-5.43-32.56-2.94,5.17-11.86,16.55-18.06,16.95-9.48.61-10.39,1.12-19.12,5.87-5.55,3.03-18.62,14.45-24.37,10.71-1.16-.79-.98-1.6-.8-2.81,1.62-10.76,35.21-22.18,35.71-24.34-5.8-15.83-13.25-30.95-21.88-45.39-1.57-.24-1.27,2.76-1.37,3.88-1.54,17.48-2.08,33.88-11.82,49.41-5.13,8.19-16.1,16.79-22.36,4.75l-5.43-14.05c-1.48,8.13-3.82,17.74-9.62,23.89-15.34,16.27-34.47-4.65-45.38-15.89.14,6.48,5.67,21.87,3.85,27.36-1.86,5.59-17.16-2.23-20.53-4.2-32.25-18.8-41.91-59.41-47.62-93.39-.18-1.05-.26-3.97-1.71-3.77l-11.61,69.01c.43,1.4,1.05,2.07,2.34,2.75,6,3.16,16.67,5.69,23.51,8.48,8.16,3.33,25.64,7.57,23.31,18.81-1.93,2.77-12.01-3.02-15.04-4.07-11.8-4.11-24.02-6.98-35.51-11.98-2.27,10.98,7.86,31.8-8.59,33.9-5.54.71-10.9-1.26-15.35-4.47-4.36-3.15-6.24-8.9-11.05-10.43-1.79,1.29-5.9,37.79-10.96,42.54-6.43,6.04-21.4-12.46-23.04-10.54.84,27.63,5.94,56.55,13.28,83.21,9.64,35.01,20.09,63.93,51.8,84.2,9.91,6.34,35.12,15.08,10.2,25.35-2.38.98-6.97.35-6.28,3.22,13.25,2.77,33.26,5.27,44.33,13.18,9.03,6.46.61,15.06,6.17,20.83,16.59,11.89,35.72,18.29,53.93,27.06,8.52-10.86,4.8-26.21,7.62-38.51.41-1.81.97-2.52,2.57-3.43,3.12-1.77,15.61-1.59,20.6-2.4,52.96-8.51,138.48-38.55,152.48-97.52,7.39-31.16-8.72-42.96-10.69-70.71ZM309.03,464.36c-32.75-3.05-40.67-59.78-23.34-83.31.95-1.28,8.42-10.19,9.01-10.54.95-.55,2.48.58,3.31.39,8.3-1.93,9.99-4.09,19.19-.71,38.76,14.23,34.95,98.18-8.18,94.17ZM349.4,375.25c-3.36,2.11-13.75-5.48-17.35-6.9-22.63-8.93-57.74.22-68.9,23.16-2.37,4.87-6.91,23.33-13.11,23.82-8.49.67-2.17-18.61-.81-22.73,12.48-37.64,55.84-54.22,90.6-35.04,7.15,3.95,13.66,8.54,9.55,17.69ZM444.23,458.49c7.16-1.87,8.54,16.59-2.18,14.94-4.8-.74-3.22-13.53,2.18-14.94ZM468.22,514.09c-1.8,2.25-9.77,9.24-12.39,11.1-17.57,12.42-44.53,15.7-64.84,9.22-7.66-2.44-30.54-13.79-25.94-24.01,4.55-10.14,17.7,7.3,22.82,9.23,19.15,7.21,41.38,8.91,58.98-3.42,3.51-2.46,10.95-10.87,14.4-11.63,7.02-1.55,11.32,4.11,6.98,9.52ZM543.57,358.93c-5.32,9.22-15.8-1.95-22.77-4.34-9.05-3.1-19.22-3.13-28.27-.21l9.29,3.19c30.21,15.93,28.64,87.7-4.77,91.82-34.32,4.23-44.77-44.79-36.56-70.56,1.83-5.76,5.46-9.89,7.02-15.47-3.81,1.88-10.35,14.9-14.25,6.76-4.12-8.58,11.57-20.5,17.94-24.59,19.76-12.7,39.07-14.98,60.34-2.69,5.33,3.08,16.17,8.91,12.03,16.07Z"/>
  <path class="cls-1" d="M291.28,596.57c3.75-.55,13.51,2.75,12.18,7.18-.27.89-12.32,8.83-14.41,10.66-3.42,3.01-17.86,17.26-7.82,19.83,3.91,1,11.14-8.75,14.28-11.37,9.92-8.3,25.12-18.87,28.96.89-5.36,3.69-11.84,4.9-16.96,9.11-2.6,2.14-11.03,11.19-8.57,14.57,14.16,3.85,18.19-14.79,34.09-13.1,9.04.96,12.24,17.67,11.22,25.27-.53,4-3.97,18.72-8.76,11.28s1.79-9.64,2.01-15.14c.41-10.3-16.66.02-17.94,7.17-2.02,11.29,9.82,20.78,11.73,30.17,2.82,13.79-4.45,26.55-10.25,38.3-19.25,38.95-55.14,116.51-92.85,137.15-26.36,14.43-36.02,7.95-45.13-19.21-6.94-20.7-6.79-39.99-2.34-61.26.95-3.27,15.07-6.95,18.56-7.44,10.49-1.45,10.8.42,4.75,7.75-4.57,5.54-21.56,18.84-19.35,26.28,1.08,3.64,8.01,4.99,10.8,2.16,30.35-31.03,58.53-63.92,83.59-99.41,3.18-5.19.68-11.07-.83-16.26-4.69-16.1-14.48-30.41-19.73-46.27-5.4-16.32-5.89-23.75,5.51-37.53,4.4-5.32,20.9-19.86,27.27-20.8Z"/>
  <path class="cls-1" d="M572.17,837.03c-5.11,4.73-11.52,4.95-17.87,3.07-17.75-5.26-38.23-50.16-48.37-66.63-13.55-22.02-49.44-66.46-52.33-89.66-1.32-10.59,5.73-17.58-.65-29.36-2.2-4.06-7.27-9.16-11.95-5.08-3.72,3.25,3.45,8.02,3.6,13.5.46,16.23-13.71-4.42-14.01-11.06-.12-2.65,2.15-11.96,3.89-13.96,3.67-4.23,12.31-4.26,17.44-3.36,4.29.75,19.78,9.22,21.46,4.26,2.79-8.27-12.9-14.65-19.36-15.37-2.98-.33-14.89.99-15.53.55-2.75-1.91.73-6.06,2.67-7.4,9.28-6.43,28.42-.75,38.03,3.68,4.1,1.89,8.81,8.69,12.09,2.45,3.49-6.63-3.22-10.97-8.73-13.81-9-4.65-18.98-5.95-29.03-5.47l6.78-4.7c18.08-7.91,28.08-4.47,40.24,10.19,22.36,26.97-5.43,60.02.42,87.58,2.8,13.18,38.95,47.2,50.03,57.97,7.47,7.26,26.9,21.79,31.09,29.91,6.06,11.76-.2,43.72-9.91,52.71Z"/>
  <path class="cls-1" d="M252.02,890.38c-6.29-1.93,6.26-14.02,7.03-16.98,1.06-4.02-.57-5.44-.47-8.45.21-6.21,12.07-16.08,16.35-21.66,8.98-11.71,18.02-27.81,25.11-40.89,10.59-19.53,18.51-41,31.47-59.02.81,12.12-16.41,33.96-6.9,44.41,3.32,3.65,24.97,14.23,30.89,17.11,9.51,4.63,18.9,10.68,26.05-.99.55-.91,3.88-10.69,5.97-8.52-1.58,8.69-1.88,17.62-3.13,26.36-1.93,13.47-6.06,27.67-6.85,41.15-.54,9.23.7,18.32.99,27.49h-126.5Z"/>
  <path class="cls-1" d="M154.51,793.37c-1.71.25-.97-2.3-.99-3.49-.2-11.44,10-34.16,13.55-46.46,8.06-27.92,13.23-57.98,25.6-84.4,1.33-2.84,8.22-16.78,11.18-16.5,15.56,12.46,28.41,28.37,43.66,41.37,3.09,2.63,7.6,4.12,10.03,6.97,4.13,4.86,8.22,17.2,6.32,23.36-1.62,5.25-19.75,27.97-24.36,33.63-2.84,3.48-15.27,18.81-18.01,20.05s-8.11-1.24-11.48-1.51c-17.47-1.36-51.5,6.47-55.5,26.98Z"/>
  <path class="cls-1" d="M485.5,768.38c3.99,9.37,16.39,22.41,17.08,32.46.36,5.19-1.64,12.16-2.75,17.36-3.33,15.67-12.47,36.29-14.23,50.76-.86,7.05,2.25,13.58,1.48,20.49l-67.6,1.51c-7.07-33.05,7.96-65.37,8.04-98.58,6.61,4.86,1.99,10.61,12.66,10.64,8.36.03,28.14-18.36,34.86-24.61,2.87-2.67,5.62-7.01,7.95-9.05.87-.76,1.12-1.29,2.51-.97Z"/>
  <path class="cls-1" d="M391.52,891.38c.54-11.51-1.91-22.96-.98-34.49s5.57-23.56,6.97-35.03c3.63-29.8-2.04-59.16,2.14-89.86.21-1.52.49-6.04,1.87-6.62,1.43,15.39,9,31.02,11.76,45.75,6.13,32.7-5.83,62.44-7.74,93.76-.35,5.81,1.48,19.59.45,23.61-1.31,5.11-10.36,2.13-14.46,2.88Z"/>
  <path class="cls-1" d="M588.47,763.34c-1.89,1.35-14.78-7.38-12.95-8.96,6.11.48,16.68.26,12.95,8.96Z"/>
  <path class="cls-1" d="M316.37,592.53c3.25,5.47-5,4.67-5.85-1.14.54-.41,5.5.55,5.85,1.14Z"/>
  <path class="cls-1" d="M601.51,746.38c-13.59-6.57-29.93-7.97-43.98-1.99.17-1.65-.48-2.81-1.45-4.07-8.28-10.78-22.32-21.04-31.54-32.47-1.48-1.83-11.1-14.18-10.02-15.47,12.65,12.37,31.27,22.63,49.52,22.05,3.56-.11,18.47-4.01,19.45-3.59,4.36,3.26,19.93,32.88,18.01,35.54Z"/>
  <path class="cls-1" d="M421.48,650.35c-3.39,2.33-17.22-13.07-21.96-12.99-.8-1.13,4.81-6.4,6.03-8.46,2.47-4.18,4.9-12.2,5.05-17.03.13-4.02-4.05-9.95,4.18-8.29,14.06,2.84,8.22,16.23,7.7,25.25-.41,7.14,1.1,14.61-1,21.52Z"/>
  <path class="cls-1" d="M379.48,638.43c.32,1.1-.02,1.94-.48,2.92-.72,1.56-8.91,12.05-10.43,13.57-3.05,3.02-6.63,4.84-10.56,6.41-2.13-.19-3.67-23.08-6.44-27.24-.3-.46-6.65-6.63-7.8-7.74-2.61-2.5-7.97-3.21-7.24-8.97,14.51,6.59,27.21,16.91,42.95,21.05Z"/>
  <path class="cls-1" d="M416.43,665.29c-1.12.88-15.8-2.16-19.44-1.97-5.45.3-20.39,8.6-15.69-3.67.81-2.12,8.47-12.34,10.54-12.14,3.68.35,11.46,9,14.97,11.07,3.18,1.87,7.67,2.04,9.72,3.29,1.24.75.18,3.19-.11,3.42Z"/>
</svg>