<?xml version="1.0" encoding="UTF-8"?>
<svg id="_图层_1" data-name="图层 1" xmlns="http://www.w3.org/2000/svg" viewBox="0 0 1024 1024">
  <defs>
    <style>
      .cls-1 {
        fill: #c2cb1c;
      }
    </style>
  </defs>
  <path class="cls-1" d="M-.07.38v1024H1023.93V.38H-.07ZM827.88,600.08c6.42,50.44-22.12,88.71-70.12,101.62-3.07.83-16.01,2.27-16.71,4.31-1.37,3.97,8.7,34.85,10.87,40.88,6.15,17.13,15.34,30.24,22.03,45.97,9.32,21.91,3.71,39.01-14.85,53.18.15,51.06-17.88,100.61-78.92,81.6-3.2-1-15.61-7.08-17.29-5.83-3.26,17.49,8.94,27.96-.09,45.93-1.76,3.51-8.48,11.64-12.36,11.64h-285c-4.05,0,2.83-13.44,1.49-15-1.08-.38-2.19,1-2.49,1-5.2,0-12.11.61-17,0-4.29-.53-12.62-4.21-16.42-6.58-21.03-13.14-27.52-40.58-32.3-63.2-52.22-15.45-23.65-67.35-13.51-102.45,6.56-22.72,11.78-45.86,19.66-68.17-6.93-4.03-14.34-7.2-20.4-12.63-4.3-3.86-7.04-8.92-11.22-12.85-14.03,5.22-26.01,6.98-40.29,1.37-9.25-3.63-31.69-21.14-26.5-32.47,1.05-2.29,9.66-7.39,8.47-9.01-20.46-3.23-34.31-29.78-41.02-47.48-25.65-67.64-3.09-197.64,21.75-265.3,33.19-90.38,103.42-169.75,192.81-207.19,16.06-43.69,42.07-67.95,91-64.07,25.12,1.99,42.83,24.67,44.65,48.84,1.1,1.26,16.92,1.85,20.18,2.32,128.96,18.65,226.13,108.36,279.8,223.2,17.16,36.7,50.22,101.53,52.81,140.19,2.74,40.79-10.33,90.22-49.04,110.19Z"/>
  <path class="cls-1" d="M615.93,807.38c2.79,5.52,6.76,10.2,1.87,16.41-1.16,1.48-2.77,1.46-2.87,1.59l-1.43,1.67c-14.21-3.99-28.41-8.01-42.62-12.06l-1.95-2.61c-1.75-5.92-2.53-12.05-4-18l1.39-1.71c15.24,3.89,30.49,7.77,45.75,11.66l3.86,3.05Z"/>
  <path class="cls-1" d="M529.93,821.38l-1.97,2.97c-8.19,4.77-31.63,18.3-39.37,19.67-.94.16-3.63-1.12-4.67-1.63-2.84-4.78,3.29-15.68,5-21l2.65-3.56c12.46-6.23,24.92-12.46,37.39-18.7l1.96,1.25c-.47,6.47-.1,14.72-1,21Z"/>
  <path class="cls-1" d="M833.68,438.13c-21.84-56.45-57.22-127.94-94.78-175.22-46.36-58.36-134.36-108.26-209.48-112.52-10.34-.59-20.48,1.11-30.78.79-5.35-1.58,1.56-12.68,2.63-16.96,6.15-24.62-9.56-43.62-34.87-41.87-27.11,1.87-46.01,21.23-51.46,47.03,4.33-.08,11.02.36,14.94-1.55,3.54-1.72,11.39-12.15,15.58-15.42,15.96-12.47,48.53-12.87,44.23,14.24-1.38,8.7-4.41,14.61-13.38,15.61-43.65,4.88-74.17,9.94-113.04,31.96-96.05,54.4-141.38,152.86-160.01,257.99-8.68,48.97-27.08,171.17,32.01,195.36,10.29,4.21,19.7.59,17.59,16.24-.8,5.96-5.65,12.22-10.77,15.22-2.95,1.74-9.02,2.01-7.03,5.24,1.57,2.55,13.92,3.27,17.13,2.85,8.22-1.07,25.27-12.89,25.5-21.41.09-3.33-11.66-12.34-14.72-15.85-31.48-36.1-37.9-111.47-27.54-156.48,1.32-5.73,7.1-24.54,11.4-9.38,3.02,10.65,2.59,31.36,4.26,43.75,7.49,55.58,26.02,116.56,70.38,153.62,1.83,1.53,11.96,9.29,13.47,8.02-4.6-11.35-10.48-22.24-14.75-33.74-1.74-4.68-11.37-31.77-4.68-33.21,1.05.13,2.42.52,3.16,1.24,2.15,2.09,6.26,15.47,8.09,19.39,12.04,25.79,33.03,61.78,54.7,80.3.88.76,6.83,5.75,7.47,5.02-.72-6.44-3.24-11.77-3.05-18.52.26-9.01,5.52-20.03,11.08-26.95,3.26-4.07,18.37-16.38,18.81-19.24.46-2.98-7.65-23.55-10.54-25.07-46.78-10.52-87.57-57.04-99.79-102.21-1.8-6.66-7.8-31.92-.49-35.55,1.17-.59,2.88,0,3.72.83,2.53,2.48,5.49,20.37,7,25.49,12.9,43.62,47.22,89.84,96.24,92.75-19.87-11.99-32.3-33.92-41.16-54.83-14.94-35.27-21.27-75.17-24.81-113.19-1.46-15.63-1.3-9.97-7.56-22.44-19.87-39.59-14.41-87.96,6.02-126.07,3.09-5.76,9.85-21.64,17.56-15.31,1.36,5.53-8.29,21.5-10.79,28.08-10.75,28.36-13.93,58.77-5.75,88.25.98,3.52,7.09,22.56,9.98,22.8,10.93-10.89,12.15,1.76,20.03,8.19l14.43-54.56c4.71-3.33,6.26,8.72,7.56,11.56,3.44,7.54,11.4,13.17,18.49,17-.29-32.95,3.59-68.39,12.29-100.22,2.69-9.85,16.7-49.03,27.45-50.65,6.24-.94,3.27,6.43,3.22,9.33-.63,36.73,4.21,85.06,29.08,114.01,2.02,2.35,6.77,8.44,9.98,7.02-1.45-9.02-8.17-38.12-4.07-45.04,3.26-5.5,8.4.04,11.04,3.08,11.04,12.72,15.47,30.05,32.12,39.88,7.83,4.63,8.3,1.41,11.39-6.43,7.1-17.97,2.17-31.48,4.61-48.39.61-4.23,1.87-7.37,6.46-4.65,8.05,4.77,14.7,37.29,18.99,47.05.36.82.25,2.82,1.95,1.99,4.19-2.04,8.13-23.55,8.5-28.51,1.97-26.49-6.86-56.26-19.82-79.16-3.14-5.55-15.51-20.44-14.01-25.6,2.26-7.75,14.41,5.09,16.8,7.81,14.61,16.57,16.53,31.89,26,49,2.61,4.71,9.37,10.33,13.01,14.99,8.19,10.5,14.88,20.15,20.89,32.11,1.61,3.2,6.23,16.66,8.11,17.9,1.84,1.21,3.59-1.42,4.46-2.61,9.46-12.77-2.87-35.86,1.65-42.35,4.7-6.75,11.55,8.34,13.09,11.74,7.63,16.83,9.56,35.54,11.83,53.67,1.53,1.4,5.03-4.93,5.53-5.96,10.87-22.27,1.41-57.59-9.74-78.34-2.67-4.97-14.76-21.42-14.69-25.22.23-11.77,14.72,3.48,17.4,6.51,22.4,25.21,25.27,52.1,24.53,84.56-.07,2.99-1.6,5.85-1.04,8.91.47,2.58,3.41,3.84,4.75,6.3,2.94,5.38,11.37,34.65,13.23,35.83,4.11,2.6,10.62-12.31,11.78-15.32,10.44-26.93,5.72-55.06-7.59-79.93-.8-1.5-14.48-20-5.86-19.19,4.39.41,13.27,10.34,16.08,13.97,24.88,32.06,22.98,78.41-.45,110.34,1.66,22.72-3.18,46.32,1.54,68.57,2.87,13.51,9.54,25.03,10.5,39.5,2.91,44.09-25.9,75.39-60.07,97.91-4.35,2.86-11.82,5.09-13.98,10.02-1.58,3.59-5.16,20.35-5,24.05.15,3.54,9.2,14.01,11.25,19.83,6.4,18.17-2.33,30.54-3.2,47.23-1.14,21.98,30.33,40,50.01,34.45-5.85-8.13-11.12-14.96-12.03-25.45-4.13-47.55,41.84-59.89,56.52-97.55,3.09-7.92,3.32-17.15,8.18-23.88,6.97-2.24,8.19,17.73,8.38,22.35.44,10.96-1.98,21.51-6.03,31.54,22.1-8.9,31.48-33.83,29-56.5-.61-5.57-8.21-19.53-5.54-23.54.55-.83,15.39-5.77,18.48-7.52,49.27-27.81,37.67-97.13,20.81-140.69ZM810.94,559.89c-3.46,3.06-15.28,11.94-19.49,11.5-8.87-.92-.95-11.46.65-15.34,9.51-23.09,16.11-52.06,14.87-77.22-.49-9.9-4.34-19.65-3.03-29.46,1.4-.11,2.66-.1,3.97.52,3.45,1.65,11.03,18.85,12.78,23.22,12.5,31.12,17.98,62.27-9.75,86.78Z"/>
</svg>