<?xml version="1.0" encoding="UTF-8"?>
<svg id="_图层_4" data-name="图层 4" xmlns="http://www.w3.org/2000/svg" viewBox="0 0 1024 1024">
  <defs>
    <style>
      .cls-1 {
        fill: #d2a447;
      }
    </style>
  </defs>
  <path class="cls-1" d="M435.18,560.11c-1.26-1.23-7.98-19.04-8.2-21.35-.49-4.99,2.26-7.93,7.29-6.23,2.28.77,9.4,19.41,9.64,22.47.4,5.04-5.56,8.2-8.72,5.11Z"/>
  <path class="cls-1" d="M684.64,510.55c2.03-.6,3.1-.23,4.84.78s11.23,13.55,12.3,15.68c3.03,6.01-.12,12.04-6.41,8.41-3.54-2.04-19.27-22.35-10.73-24.88Z"/>
  <path class="cls-1" d="M674.21,542.08c-.9-.74-10.84-19.07-11.11-20.45-1.15-5.71,6.15-6.74,9.85-2.78,1.63,1.74,9.35,16.08,9.79,18.27,1.21,6.05-4.49,8.29-8.53,4.96Z"/>
  <path class="cls-1" d="M409.6,532.52c5.16-1.71,7.51,3.96,9.09,7.6,1.94,4.47,7.52,18.96,1.26,20.86-5.31,1.62-7.57-7.32-9.04-11.08s-6.64-15.61-1.31-17.38Z"/>
  <path class="cls-1" d="M453.61,536.51c7.66-2.53,15.23,15.32,14.36,20.34-.77,4.42-7.06,4.45-9.9.89-2.45-3.08-10.14-19.35-4.46-21.23Z"/>
  <path class="cls-1" d="M527.8,761.25l-41.86,27.13c2.26-7.83,7.46-16.52,7.72-24.77.17-5.31-3.39-13.65-2.75-17.67.41-2.55,8.35-10.07,8.03-14.55,4.47,2.83,24.07,6.15,26.47,9.02,3.36,4.02,2.5,15.71,2.39,20.85Z"/>
  <path class="cls-1" d="M615.93,807.38l-51-13c-.91-3.67-6.2-18.08-5.78-20.38.49-2.61,3.83-2.86,6.02-2.42,4.9.96,29.75,10.6,33.69,13.37,5.81,4.07,13.78,15.96,17.06,22.44Z"/>
  <path class="cls-1" d="M488.93,821.38c2.36-7.36,4.2-15,7.43-22.07,10.34-4.25,22.56-18.23,31.61-22.39,3.64-1.67,4.39-.45,4.85,3.03.83,6.32-1.42,13.97-1.89,20.43l-42,21Z"/>
  <path class="cls-1" d="M614.93,825.38c-.24.3-.22,1.63-.97,2.49-2.7,3.1-21.99,22.84-24.39,22.44-10.29-10.7-16.45-23.77-20.64-37.93l46,13Z"/>
  <path class="cls-1" d="M529.93,821.38c-.75,5.2-9.81,37.05-13.6,37.94-4.92-4.14-30.2-13.23-32.4-16.94,2.07.26,3.77-.07,5.71-.78,13.13-4.77,26.98-15.08,40.29-20.22Z"/>
  <path class="cls-1" d="M592.93,767.37l-24.87-8.12c-.34-5.1-.02-10.24-.13-15.36-.04-1.97-1.29-3.92-1.02-5.96.39-3.01,4.88-4.2,5.05-7.55.98-.68,8.13,6.15,10.04,7.44,1.73,1.17,3.82,1.29,5.49,2.51.28,9.51,1.47,18.32,5.46,27.03Z"/>
  <path class="cls-1" d="M538.01,737.46c20.76-7.84,20.1,6.56,17.81,22.3-1.31,8.98-6.94,9.15-14.42,5.65-.34-9.74-.84-18.53-3.38-27.96Z"/>
</svg>